<?xml version="1.0" encoding="UTF-8" standalone="no"?> <svg id="Capa_1" enable-background="new 0 0 512 512" height="512" viewBox="0 0 512 512" width="512" xmlns="http://www.w3.org/2000/svg"><path d="m256 30.995c-107.476 0-203.979 59.927-240.146 149.121-9.859 24.302-15.854 49.834-15.854 75.879 0 124.072 115.39 225 256 225 37.646 0 74.077-7.236 108.398-21.519l98.452 21.182c5.339 1.203 11.349-.747 15-5.479 3.545-4.556 4.146-10.737 1.567-15.894l-29.106-58.198c39.229-40.575 61.689-91.684 61.689-145.092 0-124.072-115.39-225-256-225zm120 255c8.291 0 15 6.709 15 15s-6.709 15-15 15h-61.538l-14.033 49.116c-2.223 7.756-10.292 12.596-18.545 10.313-7.969-2.285-12.583-10.591-10.313-18.545l11.68-40.884h-88.79l-14.033 49.116c-2.223 7.756-10.292 12.596-18.545 10.313-7.969-2.285-12.583-10.591-10.313-18.545l11.68-40.884h-27.25c-8.291 0-15-6.709-15-15s6.709-15 15-15h35.825l17.142-60h-52.967c-8.291 0-15-6.709-15-15s6.709-15 15-15h61.538l14.033-49.116c2.285-7.983 10.664-12.466 18.545-10.313 7.969 2.285 12.583 10.591 10.313 18.545l-11.68 40.884h88.79l14.033-49.116c2.285-7.983 10.693-12.466 18.545-10.313 7.969 2.285 12.583 10.591 10.313 18.545l-11.68 40.884h27.25c8.291 0 15 6.709 15 15s-6.709 15-15 15h-35.825l-17.142 60z"/><path d="m203.033 285.995h88.792l17.142-60h-88.792z"/></svg>